<?xml version="1.0" encoding="UTF-8"?>
<svg width="477px" height="91px" viewBox="0 0 477 91" version="1.1" xmlns="http://www.w3.org/2000/svg" xmlns:xlink="http://www.w3.org/1999/xlink">
    <!-- Generator: Sketch 48.2 (47327) - http://www.bohemiancoding.com/sketch -->
    <title>intelliSound-logo</title>
    <desc>Created with Sketch.</desc>
    <defs></defs>
    <g id="Page-1" stroke="none" stroke-width="1" fill="none" fill-rule="evenodd">
        <g id="noun_189789_cc" transform="translate(-4.000000, 0.000000)" fill-rule="nonzero">
            <path d="M49.5,0.9 C24.7,0.9 4.5,21.1 4.5,45.9 C4.5,67.8 20.1,85.9 40.7,90 C41.1,89.1 41.6,88 41.8,86.9 C41.6,85.8 41.5,84.7 41.2,83.8 C40.2,80.6 39,77.4 37.8,74.2 C37.2,72.4 35.6,72.4 33.9,72.6 C31.3,72.8 28.5,73.2 25.9,72.9 C21.9,72.5 21,70.8 21.1,66.8 C21.2,65.7 20.9,64.1 20.2,63.3 C18.8,61.9 19.3,60.9 20.2,59.7 C20,59.7 19.7,59.6 19.5,59.6 C19.4,58.6 18.9,57.5 19.1,56.6 C19.5,54.4 19.1,53.6 16.9,52.8 C16.2,52.6 15.6,52.4 14.9,52 C13.1,51 12.7,49.9 13.8,48 C15.6,44.8 17.7,41.6 19.5,38.3 C20.1,37.3 19.9,35.7 19.9,34.4 C19.9,33 19.2,31.4 19.5,30 C20.3,27.2 21.2,24.4 22.4,21.8 C25.2,15.5 30.4,11.7 36.8,10 C44.1,8 51.8,7.2 59.1,9.3 C68.8,12.1 79.4,20.6 79.4,32.6 C79.4,36.6 78.5,40.9 76.8,44.5 C71.9,54.9 71,59.7 73.7,70.8 C73.7,70.8 73.7,71.8 75.4,74.5 C75.4,74.5 77.2,76.6 79.6,79.4 C88.7,71.2 94.6,59.2 94.6,45.9 C94.4,21 74.3,0.9 49.5,0.9 Z" id="Shape" fill="#203A65"></path>
            <g id="Group" transform="translate(22.000000, 9.000000)" fill="#4D87E5">
                <path d="M52.8,21.1 C53.3,20.8 53.6,20.2 53.6,19.6 C53.6,18.6 52.8,17.8 51.8,17.8 C50.8,17.8 50,18.6 50,19.6 C50,20.2 50.3,20.8 50.8,21.1 L50.8,24 L34.3,40.4 L34.3,38.3 L41.9,30.7 C42,30.7 42.1,30.7 42.3,30.7 C43.3,30.7 44.1,29.9 44.1,28.9 C44.1,27.9 43.3,27.1 42.3,27.1 C41.3,27.1 40.5,27.9 40.5,28.9 C40.5,29 40.5,29.2 40.5,29.3 L34.3,35.5 L34.3,33.6 L46.4,21.5 L46.4,14.6 C46.9,14.3 47.2,13.7 47.2,13.1 C47.2,12.1 46.4,11.3 45.4,11.3 C44.4,11.3 43.6,12.1 43.6,13.1 C43.6,13.7 43.9,14.3 44.4,14.6 L44.4,20.6 L32.3,32.8 L32.3,81 C32.3,81.6 32.7,82 33.3,82 C33.9,82 34.3,81.6 34.3,81 L34.3,43.3 L52.8,24.8 L52.8,21.1 Z" id="Shape"></path>
                <path d="M5.8,23.5 L4.4,22.1 C4.4,22 4.4,21.9 4.4,21.7 C4.4,20.7 3.6,19.9 2.6,19.9 C1.6,19.9 0.8,20.7 0.8,21.7 C0.8,22.7 1.6,23.5 2.6,23.5 C2.7,23.5 2.9,23.5 3,23.5 L4.9,25.4 L20.1,25.4 L27.5,32.8 L27.5,35.2 L20.7,28.4 L12.5,28.4 L12.2,28.1 C12.2,28 12.2,27.9 12.2,27.7 C12.2,26.7 11.4,25.9 10.4,25.9 C9.4,25.9 8.6,26.7 8.6,27.7 C8.6,28.7 9.4,29.5 10.4,29.5 C10.5,29.5 10.7,29.5 10.8,29.5 L11.6,30.3 L20,30.3 L27.6,37.9 L27.6,81 C27.6,81.6 28,82 28.6,82 C29.2,82 29.6,81.6 29.6,81 L29.6,32.1 L21,23.5 L5.8,23.5 Z" id="Shape"></path>
                <path d="M37.2,19.9 C37.1,19.9 37,19.9 36.8,19.9 C35.8,19.9 35,20.7 35,21.7 C35,22.7 35.8,23.5 36.8,23.5 C37.8,23.5 38.6,22.7 38.6,21.7 C38.6,21.6 38.6,21.4 38.6,21.3 L40.8,19.1 L40.8,9.4 C41.3,9.1 41.6,8.5 41.6,7.9 C41.6,6.9 40.8,6.1 39.8,6.1 C38.8,6.1 38,6.9 38,7.9 C38,8.5 38.3,9.1 38.8,9.4 L38.8,18.3 L37.2,19.9 Z" id="Shape"></path>
                <path d="M53.3,31 C52.3,31 51.5,31.8 51.5,32.8 C51.5,32.9 51.5,33.1 51.5,33.2 L50.5,34.2 L46.4,34.2 L37,43.5 L37,81 C37,81.6 37.4,82 38,82 C38.6,82 39,81.6 39,81 L39,44.4 L47.2,36.2 L51.3,36.2 L52.8,34.7 C52.9,34.7 53,34.7 53.2,34.7 C54.2,34.7 55,33.9 55,32.9 C55.2,31.8 54.4,31 53.3,31 Z" id="Shape"></path>
                <path d="M48.1,41.6 C47.5,41.6 46.9,41.9 46.6,42.4 L44,42.4 L41.8,44.6 L41.8,81 C41.8,81.6 42.2,82 42.8,82 C43.4,82 43.8,81.6 43.8,81 L43.8,45.5 L44.9,44.4 L46.6,44.4 C46.9,44.9 47.5,45.2 48.1,45.2 C49.1,45.2 49.9,44.4 49.9,43.4 C49.9,42.5 49.1,41.6 48.1,41.6 Z" id="Shape"></path>
                <path d="M33.7,27.6 C34.7,27.6 35.5,26.8 35.5,25.8 C35.5,24.8 34.7,24 33.7,24 C32.7,24 31.9,24.8 31.9,25.8 C31.9,26 31.9,26.2 32,26.4 L30.8,27.6 L22.8,19.6 L7,19.6 L4.2,16.8 C4.2,16.7 4.2,16.6 4.2,16.4 C4.2,15.4 3.4,14.6 2.4,14.6 C1.4,14.6 0.6,15.4 0.6,16.4 C0.6,17.4 1.4,18.2 2.4,18.2 C2.5,18.2 2.7,18.2 2.8,18.2 L6.2,21.6 L22,21.6 L30.8,30.4 L33.5,27.7 C33.6,27.5 33.7,27.6 33.7,27.6 Z" id="Shape"></path>
                <path d="M17.6,4.6 C18.2,4.6 18.8,4.3 19.1,3.8 L20.7,3.8 L28.4,11.5 C28.4,11.6 28.4,11.7 28.4,11.9 C28.4,12.9 29.2,13.7 30.2,13.7 C31.2,13.7 32,12.9 32,11.9 C32,10.9 31.2,10.1 30.2,10.1 C30.1,10.1 29.9,10.1 29.8,10.1 L21.5,1.8 L19,1.8 C18.7,1.3 18.1,1 17.5,1 C16.5,1 15.7,1.8 15.7,2.8 C15.7,3.8 16.5,4.6 17.6,4.6 Z" id="Shape"></path>
                <path d="M5.9,13.9 C6,13.9 6.2,13.9 6.3,13.9 L9.5,17.1 L21.4,17.1 L14.9,10.6 C14.9,10.5 14.9,10.4 14.9,10.2 C14.9,9.2 14.1,8.4 13.1,8.4 C12.1,8.4 11.3,9.2 11.3,10.2 C11.3,11.2 12.1,12 13.1,12 C13.2,12 13.4,12 13.5,12 L16.6,15.1 L10.4,15.1 L7.7,12.4 C7.7,12.3 7.7,12.2 7.7,12 C7.7,11 6.9,10.2 5.9,10.2 C4.9,10.2 4.1,11 4.1,12 C4.1,13.1 4.9,13.9 5.9,13.9 Z" id="Shape"></path>
                <path d="M7.5,9.9 C8.5,9.9 9.3,9.1 9.3,8.1 C9.3,8 9.3,7.8 9.3,7.7 L11.6,5.4 L13.7,5.4 L30.4,22.1 L35.7,16.8 L35.7,4.8 L32.6,1.7 L30.2,1.7 C29.9,1.2 29.3,0.9 28.7,0.9 C27.7,0.9 26.9,1.7 26.9,2.7 C26.9,3.7 27.7,4.5 28.7,4.5 C29.3,4.5 29.9,4.2 30.2,3.7 L31.8,3.7 L33.7,5.6 L33.7,16 L30.4,19.3 L14.5,3.4 L10.7,3.4 L7.8,6.3 C7.7,6.3 7.6,6.3 7.4,6.3 C6.4,6.3 5.6,7.1 5.6,8.1 C5.7,9.1 6.5,9.9 7.5,9.9 Z" id="Shape"></path>
            </g>
        </g>
        <path d="M103.04,69 L103.04,38.82 L107.9,38.82 L107.9,69 L103.04,69 Z M102.56,26.04 L108.5,26.04 L108.5,31.56 L102.56,31.56 L102.56,26.04 Z M132.38,38.1 C139.620036,38.1 143.24,42.0799602 143.24,50.04 L143.24,69 L138.38,69 L138.38,50.28 C138.38,47.479986 137.820006,45.4300065 136.7,44.13 C135.579994,42.8299935 133.820012,42.18 131.42,42.18 C128.619986,42.18 126.380008,43.0399914 124.7,44.76 C123.019992,46.4800086 122.18,48.7999854 122.18,51.72 L122.18,69 L117.32,69 L117.32,47.28 C117.32,44.1599844 117.160002,41.3400126 116.84,38.82 L121.46,38.82 L121.94,44.22 C122.860005,42.2599902 124.239991,40.7500053 126.08,39.69 C127.920009,38.6299947 130.019988,38.1 132.38,38.1 Z M158.9,42.66 L158.9,59.16 C158.9,61.4000112 159.359995,62.9699955 160.28,63.87 C161.200005,64.7700045 162.499992,65.22 164.18,65.22 C165.300006,65.22 166.379995,65.0400018 167.42,64.68 L167.42,68.82 C166.179994,69.220002 164.780008,69.42 163.22,69.42 C160.339986,69.42 158.090008,68.6100081 156.47,66.99 C154.849992,65.3699919 154.04,62.9800158 154.04,59.82 L154.04,42.66 L148.16,42.66 L148.16,38.82 L154.04,38.82 L154.04,31.08 L158.9,29.34 L158.9,38.82 L167.54,38.82 L167.54,42.66 L158.9,42.66 Z M198.68,53.76 L176.54,53.76 C176.58,57.6000192 177.469991,60.4999902 179.21,62.46 C180.950009,64.4200098 183.479983,65.4 186.8,65.4 C190.320018,65.4 193.559985,64.2200118 196.52,61.86 L198.14,65.4 C196.819993,66.6400062 195.13001,67.6199964 193.07,68.34 C191.00999,69.0600036 188.900011,69.42 186.74,69.42 C182.019976,69.42 178.320013,68.0300139 175.64,65.25 C172.959987,62.4699861 171.62,58.6600242 171.62,53.82 C171.62,50.7399846 172.219994,48.0100119 173.42,45.63 C174.620006,43.2499881 176.299989,41.4000066 178.46,40.08 C180.620011,38.7599934 183.079986,38.1 185.84,38.1 C189.84002,38.1 192.979989,39.4099869 195.26,42.03 C197.540011,44.6500131 198.68,48.259977 198.68,52.86 L198.68,53.76 Z M185.9,41.88 C183.379987,41.88 181.330008,42.6399924 179.75,44.16 C178.169992,45.6800076 177.160002,47.8199862 176.72,50.58 L194.3,50.58 C194.059999,47.7399858 193.230007,45.5800074 191.81,44.1 C190.389993,42.6199926 188.420013,41.88 185.9,41.88 Z M206.06,69 L206.06,24.84 L210.92,24.84 L210.92,69 L206.06,69 Z M220.34,69 L220.34,24.84 L225.2,24.84 L225.2,69 L220.34,69 Z M234.62,69 L234.62,38.82 L239.48,38.82 L239.48,69 L234.62,69 Z M234.14,26.04 L240.08,26.04 L240.08,31.56 L234.14,31.56 L234.14,26.04 Z M263.06,69.48 C256.379967,69.48 251.06002,67.680018 247.1,64.08 L248.96,60.3 C251.080011,62.100009 253.239989,63.3799962 255.44,64.14 C257.640011,64.9000038 260.199985,65.28 263.12,65.28 C266.560017,65.28 269.209991,64.6100067 271.07,63.27 C272.930009,61.9299933 273.86,60.0400122 273.86,57.6 C273.86,56.1599928 273.410005,54.9900045 272.51,54.09 C271.609995,53.1899955 270.430007,52.4800026 268.97,51.96 C267.509993,51.4399974 265.560012,50.9000028 263.12,50.34 C259.839984,49.6199964 257.140011,48.8400042 255.02,48 C252.899989,47.1599958 251.180007,45.9500079 249.86,44.37 C248.539993,42.7899921 247.88,40.7200128 247.88,38.16 C247.88,35.7199878 248.519994,33.5700093 249.8,31.71 C251.080006,29.8499907 252.889988,28.4000052 255.23,27.36 C257.570012,26.3199948 260.299984,25.8 263.42,25.8 C266.380015,25.8 269.139987,26.2599954 271.7,27.18 C274.260013,28.1000046 276.419991,29.4399912 278.18,31.2 L276.26,34.98 C274.25999,33.2599914 272.23001,32.000004 270.17,31.2 C268.10999,30.399996 265.860012,30 263.42,30 C260.099983,30 257.500009,30.7099929 255.62,32.13 C253.739991,33.5500071 252.8,35.4999876 252.8,37.98 C252.8,40.1400108 253.619992,41.7599946 255.26,42.84 C256.900008,43.9200054 259.419983,44.859996 262.82,45.66 C266.500018,46.5400044 269.38999,47.3499963 271.49,48.09 C273.590011,48.8300037 275.339993,49.9499925 276.74,51.45 C278.140007,52.9500075 278.84,54.9399876 278.84,57.42 C278.84,59.820012 278.200006,61.9299909 276.92,63.75 C275.639994,65.5700091 273.810012,66.979995 271.43,67.98 C269.049988,68.980005 266.260016,69.48 263.06,69.48 Z M298.76,69.42 C295.919986,69.42 293.420011,68.7800064 291.26,67.5 C289.099989,66.2199936 287.430006,64.4000118 286.25,62.04 C285.069994,59.6799882 284.48,56.9200158 284.48,53.76 C284.48,50.5999842 285.069994,47.8400118 286.25,45.48 C287.430006,43.1199882 289.099989,41.3000064 291.26,40.02 C293.420011,38.7399936 295.919986,38.1 298.76,38.1 C301.600014,38.1 304.099989,38.7399936 306.26,40.02 C308.420011,41.3000064 310.089994,43.1199882 311.27,45.48 C312.450006,47.8400118 313.04,50.5999842 313.04,53.76 C313.04,56.9200158 312.450006,59.6799882 311.27,62.04 C310.089994,64.4000118 308.420011,66.2199936 306.26,67.5 C304.099989,68.7800064 301.600014,69.42 298.76,69.42 Z M298.76,65.4 C301.760015,65.4 304.059992,64.4100099 305.66,62.43 C307.260008,60.4499901 308.06,57.560019 308.06,53.76 C308.06,50.0799816 307.240008,47.2300101 305.6,45.21 C303.959992,43.1899899 301.680015,42.18 298.76,42.18 C295.799985,42.18 293.500008,43.1899899 291.86,45.21 C290.219992,47.2300101 289.4,50.0799816 289.4,53.76 C289.4,57.560019 290.209992,60.4499901 291.83,62.43 C293.450008,64.4100099 295.759985,65.4 298.76,65.4 Z M345.86,38.82 L345.86,69 L341.12,69 L341.12,63.78 C340.159995,65.6200092 338.820009,67.0199952 337.1,67.98 C335.379991,68.9400048 333.440011,69.42 331.28,69.42 C327.719982,69.42 325.020009,68.42001 323.18,66.42 C321.339991,64.41999 320.42,61.4600196 320.42,57.54 L320.42,38.82 L325.28,38.82 L325.28,57.42 C325.28,60.1400136 325.839994,62.1399936 326.96,63.42 C328.080006,64.7000064 329.779989,65.34 332.06,65.34 C334.740013,65.34 336.899992,64.4700087 338.54,62.73 C340.180008,60.9899913 341,58.7000142 341,55.86 L341,38.82 L345.86,38.82 Z M370.28,38.1 C377.520036,38.1 381.14,42.0799602 381.14,50.04 L381.14,69 L376.28,69 L376.28,50.28 C376.28,47.479986 375.720006,45.4300065 374.6,44.13 C373.479994,42.8299935 371.720012,42.18 369.32,42.18 C366.519986,42.18 364.280008,43.0399914 362.6,44.76 C360.919992,46.4800086 360.08,48.7999854 360.08,51.72 L360.08,69 L355.22,69 L355.22,47.28 C355.22,44.1599844 355.060002,41.3400126 354.74,38.82 L359.36,38.82 L359.84,44.22 C360.760005,42.2599902 362.139991,40.7500053 363.98,39.69 C365.820009,38.6299947 367.919988,38.1 370.28,38.1 Z M416.9,24.84 L416.9,69 L412.1,69 L412.1,63.54 C411.219996,65.4200094 409.890009,66.8699949 408.11,67.89 C406.329991,68.9100051 404.260012,69.42 401.9,69.42 C399.259987,69.42 396.93001,68.7600066 394.91,67.44 C392.88999,66.1199934 391.320006,64.2700119 390.2,61.89 C389.079994,59.5099881 388.52,56.7600156 388.52,53.64 C388.52,50.5199844 389.069995,47.7900117 390.17,45.45 C391.270006,43.1099883 392.83999,41.3000064 394.88,40.02 C396.92001,38.7399936 399.259987,38.1 401.9,38.1 C404.260012,38.1 406.319991,38.6099949 408.08,39.63 C409.840009,40.6500051 411.159996,42.0799908 412.04,43.92 L412.04,24.84 L416.9,24.84 Z M402.86,65.4 C405.820015,65.4 408.099992,64.3900101 409.7,62.37 C411.300008,60.3499899 412.1,57.4800186 412.1,53.76 C412.1,50.0799816 411.300008,47.2300101 409.7,45.21 C408.099992,43.1899899 405.820015,42.18 402.86,42.18 C399.899985,42.18 397.590008,43.17999 395.93,45.18 C394.269992,47.18001 393.44,49.9999818 393.44,53.64 C393.44,57.3600186 394.269992,60.2499897 395.93,62.31 C397.590008,64.3700103 399.899985,65.4 402.86,65.4 Z" id="intelliSound" fill="#4D87E5"></path>
        <path d="M460.16,69 L455.48,58.02 L433.16,58.02 L428.42,69 L423.32,69 L442.1,26.28 L446.42,26.28 L465.2,69 L460.16,69 Z M434.9,53.94 L453.74,53.94 L444.32,31.98 L434.9,53.94 Z M471.56,69 L471.56,26.28 L476.48,26.28 L476.48,69 L471.56,69 Z" id="AI" fill="#203A65"></path>
    </g>
</svg>