<?xml version="1.0" encoding="UTF-8"?>
<svg width="482px" height="91px" viewBox="0 0 482 91" version="1.1" xmlns="http://www.w3.org/2000/svg" xmlns:xlink="http://www.w3.org/1999/xlink">
    <!-- Generator: Sketch 48.2 (47327) - http://www.bohemiancoding.com/sketch -->
    <title>intelliSound-logo</title>
    <desc>Created with Sketch.</desc>
    <defs>
    <style type="text/css">@import url('https://fonts.googleapis.com/css?family=Muli:200,300,400,600');</style>
    </defs>
    <g id="Page-1" stroke="none" stroke-width="1" fill="none" fill-rule="evenodd">
        <g id="noun_189789_cc" transform="translate(-4.000000, 0.000000)" fill-rule="nonzero">
            <path d="M49.5,0.9 C24.7,0.9 4.5,21.1 4.5,45.9 C4.5,67.8 20.1,85.9 40.7,90 C41.1,89.1 41.6,88 41.8,86.9 C41.6,85.8 41.5,84.7 41.2,83.8 C40.2,80.6 39,77.4 37.8,74.2 C37.2,72.4 35.6,72.4 33.9,72.6 C31.3,72.8 28.5,73.2 25.9,72.9 C21.9,72.5 21,70.8 21.1,66.8 C21.2,65.7 20.9,64.1 20.2,63.3 C18.8,61.9 19.3,60.9 20.2,59.7 C20,59.7 19.7,59.6 19.5,59.6 C19.4,58.6 18.9,57.5 19.1,56.6 C19.5,54.4 19.1,53.6 16.9,52.8 C16.2,52.6 15.6,52.4 14.9,52 C13.1,51 12.7,49.9 13.8,48 C15.6,44.8 17.7,41.6 19.5,38.3 C20.1,37.3 19.9,35.7 19.9,34.4 C19.9,33 19.2,31.4 19.5,30 C20.3,27.2 21.2,24.4 22.4,21.8 C25.2,15.5 30.4,11.7 36.8,10 C44.1,8 51.8,7.2 59.1,9.3 C68.8,12.1 79.4,20.6 79.4,32.6 C79.4,36.6 78.5,40.9 76.8,44.5 C71.9,54.9 71,59.7 73.7,70.8 C73.7,70.8 73.7,71.8 75.4,74.5 C75.4,74.5 77.2,76.6 79.6,79.4 C88.7,71.2 94.6,59.2 94.6,45.9 C94.4,21 74.3,0.9 49.5,0.9 Z" id="Shape" fill="#203A65"></path>
            <g id="Group" transform="translate(22.000000, 9.000000)" fill="#4D87E5">
                <path d="M52.8,21.1 C53.3,20.8 53.6,20.2 53.6,19.6 C53.6,18.6 52.8,17.8 51.8,17.8 C50.8,17.8 50,18.6 50,19.6 C50,20.2 50.3,20.8 50.8,21.1 L50.8,24 L34.3,40.4 L34.3,38.3 L41.9,30.7 C42,30.7 42.1,30.7 42.3,30.7 C43.3,30.7 44.1,29.9 44.1,28.9 C44.1,27.9 43.3,27.1 42.3,27.1 C41.3,27.1 40.5,27.9 40.5,28.9 C40.5,29 40.5,29.2 40.5,29.3 L34.3,35.5 L34.3,33.6 L46.4,21.5 L46.4,14.6 C46.9,14.3 47.2,13.7 47.2,13.1 C47.2,12.1 46.4,11.3 45.4,11.3 C44.4,11.3 43.6,12.1 43.6,13.1 C43.6,13.7 43.9,14.3 44.4,14.6 L44.4,20.6 L32.3,32.8 L32.3,81 C32.3,81.6 32.7,82 33.3,82 C33.9,82 34.3,81.6 34.3,81 L34.3,43.3 L52.8,24.8 L52.8,21.1 Z" id="Shape"></path>
                <path d="M5.8,23.5 L4.4,22.1 C4.4,22 4.4,21.9 4.4,21.7 C4.4,20.7 3.6,19.9 2.6,19.9 C1.6,19.9 0.8,20.7 0.8,21.7 C0.8,22.7 1.6,23.5 2.6,23.5 C2.7,23.5 2.9,23.5 3,23.5 L4.9,25.4 L20.1,25.4 L27.5,32.8 L27.5,35.2 L20.7,28.4 L12.5,28.4 L12.2,28.1 C12.2,28 12.2,27.9 12.2,27.7 C12.2,26.7 11.4,25.9 10.4,25.9 C9.4,25.9 8.6,26.7 8.6,27.7 C8.6,28.7 9.4,29.5 10.4,29.5 C10.5,29.5 10.7,29.5 10.8,29.5 L11.6,30.3 L20,30.3 L27.6,37.9 L27.6,81 C27.6,81.6 28,82 28.6,82 C29.2,82 29.6,81.6 29.6,81 L29.6,32.1 L21,23.5 L5.8,23.5 Z" id="Shape"></path>
                <path d="M37.2,19.9 C37.1,19.9 37,19.9 36.8,19.9 C35.8,19.9 35,20.7 35,21.7 C35,22.7 35.8,23.5 36.8,23.5 C37.8,23.5 38.6,22.7 38.6,21.7 C38.6,21.6 38.6,21.4 38.6,21.3 L40.8,19.1 L40.8,9.4 C41.3,9.1 41.6,8.5 41.6,7.9 C41.6,6.9 40.8,6.1 39.8,6.1 C38.8,6.1 38,6.9 38,7.9 C38,8.5 38.3,9.1 38.8,9.4 L38.8,18.3 L37.2,19.9 Z" id="Shape"></path>
                <path d="M53.3,31 C52.3,31 51.5,31.8 51.5,32.8 C51.5,32.9 51.5,33.1 51.5,33.2 L50.5,34.2 L46.4,34.2 L37,43.5 L37,81 C37,81.6 37.4,82 38,82 C38.6,82 39,81.6 39,81 L39,44.4 L47.2,36.2 L51.3,36.2 L52.8,34.7 C52.9,34.7 53,34.7 53.2,34.7 C54.2,34.7 55,33.9 55,32.9 C55.2,31.8 54.4,31 53.3,31 Z" id="Shape"></path>
                <path d="M48.1,41.6 C47.5,41.6 46.9,41.9 46.6,42.4 L44,42.4 L41.8,44.6 L41.8,81 C41.8,81.6 42.2,82 42.8,82 C43.4,82 43.8,81.6 43.8,81 L43.8,45.5 L44.9,44.4 L46.6,44.4 C46.9,44.9 47.5,45.2 48.1,45.2 C49.1,45.2 49.9,44.4 49.9,43.4 C49.9,42.5 49.1,41.6 48.1,41.6 Z" id="Shape"></path>
                <path d="M33.7,27.6 C34.7,27.6 35.5,26.8 35.5,25.8 C35.5,24.8 34.7,24 33.7,24 C32.7,24 31.9,24.8 31.9,25.8 C31.9,26 31.9,26.2 32,26.4 L30.8,27.6 L22.8,19.6 L7,19.6 L4.2,16.8 C4.2,16.7 4.2,16.6 4.2,16.4 C4.2,15.4 3.4,14.6 2.4,14.6 C1.4,14.6 0.6,15.4 0.6,16.4 C0.6,17.4 1.4,18.2 2.4,18.2 C2.5,18.2 2.7,18.2 2.8,18.2 L6.2,21.6 L22,21.6 L30.8,30.4 L33.5,27.7 C33.6,27.5 33.7,27.6 33.7,27.6 Z" id="Shape"></path>
                <path d="M17.6,4.6 C18.2,4.6 18.8,4.3 19.1,3.8 L20.7,3.8 L28.4,11.5 C28.4,11.6 28.4,11.7 28.4,11.9 C28.4,12.9 29.2,13.7 30.2,13.7 C31.2,13.7 32,12.9 32,11.9 C32,10.9 31.2,10.1 30.2,10.1 C30.1,10.1 29.9,10.1 29.8,10.1 L21.5,1.8 L19,1.8 C18.7,1.3 18.1,1 17.5,1 C16.5,1 15.7,1.8 15.7,2.8 C15.7,3.8 16.5,4.6 17.6,4.6 Z" id="Shape"></path>
                <path d="M5.9,13.9 C6,13.9 6.2,13.9 6.3,13.9 L9.5,17.1 L21.4,17.1 L14.9,10.6 C14.9,10.5 14.9,10.4 14.9,10.2 C14.9,9.2 14.1,8.4 13.1,8.4 C12.1,8.4 11.3,9.2 11.3,10.2 C11.3,11.2 12.1,12 13.1,12 C13.2,12 13.4,12 13.5,12 L16.6,15.1 L10.4,15.1 L7.7,12.4 C7.7,12.3 7.7,12.2 7.7,12 C7.7,11 6.9,10.2 5.9,10.2 C4.9,10.2 4.1,11 4.1,12 C4.1,13.1 4.9,13.9 5.9,13.9 Z" id="Shape"></path>
                <path d="M7.5,9.9 C8.5,9.9 9.3,9.1 9.3,8.1 C9.3,8 9.3,7.8 9.3,7.7 L11.6,5.4 L13.7,5.4 L30.4,22.1 L35.7,16.8 L35.7,4.8 L32.6,1.7 L30.2,1.7 C29.9,1.2 29.3,0.9 28.7,0.9 C27.7,0.9 26.9,1.7 26.9,2.7 C26.9,3.7 27.7,4.5 28.7,4.5 C29.3,4.5 29.9,4.2 30.2,3.7 L31.8,3.7 L33.7,5.6 L33.7,16 L30.4,19.3 L14.5,3.4 L10.7,3.4 L7.8,6.3 C7.7,6.3 7.6,6.3 7.4,6.3 C6.4,6.3 5.6,7.1 5.6,8.1 C5.7,9.1 6.5,9.9 7.5,9.9 Z" id="Shape"></path>
            </g>
        </g>
        <text id="intelliSoundAI" font-family="Muli-Regular, Muli" font-size="60" font-weight="normal">
            <tspan x="104.1" y="66" fill="#4D87E5">intelliSound</tspan>
            <tspan x="427.38" y="66" fill="#203A65">AI</tspan>
        </text>
    </g>
</svg>