<?xml version="1.0" encoding="UTF-8"?>
<svg width="555px" height="206px" viewBox="0 0 555 206" version="1.1" xmlns="http://www.w3.org/2000/svg" xmlns:xlink="http://www.w3.org/1999/xlink">
    <!-- Generator: Sketch 48.2 (47327) - http://www.bohemiancoding.com/sketch -->
    <title>organ-wave</title>
    <desc>Created with Sketch.</desc>
    <defs></defs>
    <g id="Page-1" stroke="none" stroke-width="1" fill="none" fill-rule="evenodd">
        <g id="organ-wave" transform="translate(3.000000, 3.000000)" stroke="#4D87E5" stroke-width="5">
            <path d="M0.611893541,80.0363828 C0.786780112,76.7484554 -0.764510745,72.8904873 1.13655324,70.1726007 C5.04163088,64.589644 22.1510076,67.3582086 26.2710324,71.6950366 C35.9763962,81.9111141 37.0341668,92.9814874 57.750615,86.5668315 C70.8203913,82.5198966 58.4990435,53.4506637 75.7079134,43.5620238 C102.589457,28.1152276 106.031397,80.7275674 134.748527,54.0107417 C148.893074,40.8514382 134.501838,20.0265767 144.430138,6.01795329 C146.578765,2.98628464 150.859953,1.70771792 154.587221,1.13413919 C162.800498,-0.129778441 171.2744,-0.388248123 179.524953,0.617312267 C203.826876,3.57918037 188.188534,41.3808139 208.926392,46.4426328 C211.47727,47.0652663 215.378008,48.0897243 216.796288,45.9258058 C220.248287,40.6589675 218.829207,33.4661434 221.231301,27.6685944 C224.838965,18.9613544 241.878301,17.2531405 248.009441,23.5179533 C257.139269,32.8468324 251.164171,60.9570567 251.514004,64.0948764 C252.14192,69.7269697 260.442192,87.6571888 270.926413,81.0179533 C276.552754,77.4550178 279.075023,69.9526701 285.092226,67.0636264 C289.232859,65.0755809 294.62234,65.9422544 298.921928,67.5764469 C303.835304,69.443929 304.585382,128.084679 309.550386,134.251126 C320.30204,147.60449 327.905309,139.841768 335.902239,130.873722 C338.566383,127.886055 350.475255,121.615289 354.453879,126.731094 C357.165248,130.217436 357.34258,135.131592 357.601837,139.50353 C358.397351,152.918515 356.856956,166.398269 357.601837,179.81603 C357.854594,184.369024 356.34099,191.281598 360.58174,193.181414 L363.205039,197.796799 C384.312429,207.252716 368.999885,177.896617 384.953823,175.22869 C407.813396,171.405956 414.296433,205.547263 440.452983,193.754331 C455.122344,187.14051 449.468541,150.615471 450.491199,145.605293 C450.967506,143.271781 454.41329,142.515162 456.787115,141.987505 C460.790326,141.097666 465.214764,140.151563 469.092026,141.470678 C476.755642,144.077979 476.682609,156.138648 490.791622,144.920197 C498.822174,138.534892 485.479736,101.924186 489.766897,93.2134662 C491.012478,90.6826758 523.594955,97.0897782 526.29633,96.2863828 C534.403049,93.8754244 507.660941,44.9040788 537.957711,31.971479 C539.720677,31.2189326 542.805716,33.6211237 543.728967,31.971479 C547.118191,25.9156922 547.349666,18.6274618 549.160015,11.9554533" id="Shape"></path>
        </g>
    </g>
</svg>