<?xml version="1.0" encoding="UTF-8"?>
<svg width="544px" height="201px" viewBox="0 0 544 201" version="1.1" xmlns="http://www.w3.org/2000/svg" xmlns:xlink="http://www.w3.org/1999/xlink">
    <!-- Generator: Sketch 48.2 (47327) - http://www.bohemiancoding.com/sketch -->
    <title>organ-wave</title>
    <desc>Created with Sketch.</desc>
    <defs></defs>
    <g id="organ-wave" stroke="none" stroke-width="1" fill="none" fill-rule="evenodd">
        <path d="M3.59965567,81.0354732 C3.77104451,77.829744 2.25077947,74.0682251 4.11382218,71.4182857 C7.94079826,65.9749029 24.7079874,68.6742534 28.7456118,72.9026607 C38.2568683,82.8633362 39.2934835,93.6569502 59.5956027,87.4026607 C72.4039835,83.4568992 60.3290626,55.1143971 77.1937551,45.4729732 C103.537668,30.4123469 106.910769,81.7093782 135.053556,55.6604732 C148.915213,42.8301522 134.811801,22.5259123 144.541535,8.86750446 C146.64719,5.91162752 150.842754,4.66502497 154.495477,4.10578571 C162.544488,2.87346602 170.848912,2.62145808 178.934454,3.60187946 C202.750338,6.48970086 187.424763,43.3462936 207.747864,48.281567 C210.247725,48.8886346 214.070448,49.8874812 215.460362,47.7776607 C218.843321,42.6424933 217.452623,35.6294898 219.806675,29.9768795 C223.342186,21.4873205 240.040735,19.821812 246.049252,25.9300045 C254.996484,35.0256616 249.140888,62.4331303 249.483724,65.4925045 C250.099082,70.9837955 258.233348,88.4657591 268.507885,81.9925045 C274.021699,78.5186424 276.493523,71.2038533 282.390381,68.3870357 C286.448202,66.4486914 291.729893,67.293698 295.943489,68.8870357 C300.758598,70.7078308 301.493674,127.882562 306.359378,133.894848 C316.895999,146.914378 324.347203,139.345724 332.184194,130.601879 C334.795055,127.688904 346.46575,121.574907 350.364801,126.562817 C353.021943,129.962 353.195728,134.753302 353.4498,139.015942 C354.229404,152.095552 352.719817,165.238312 353.4498,178.320629 C353.697502,182.759798 352.21417,189.499558 356.370105,191.351879 L358.940938,195.851879 C379.62618,205.071398 364.619887,176.449202 380.254747,173.847973 C402.657128,170.120807 409.010504,203.408581 434.643923,191.910473 C449.019897,185.461997 443.47917,149.850084 444.481375,144.965161 C444.948156,142.689986 448.325024,141.952283 450.651373,141.437817 C454.574519,140.570224 458.910469,139.647774 462.710185,140.933911 C470.220529,143.47603 470.148957,155.235182 483.97579,144.297192 C491.845731,138.07152 478.770141,102.376081 482.971559,93.8831295 C484.192228,91.4156089 516.123056,97.6625337 518.770403,96.8792232 C526.714988,94.5285388 500.507722,46.7814768 530.198557,34.172192 C531.926263,33.4384593 534.949602,35.7805956 535.854388,34.172192 C539.175827,28.2677999 539.402673,21.1617753 541.176815,14.656567" stroke="#4D87E5" stroke-width="5"></path>
    </g>
</svg>